# Blender 3.6.5
# www.blender.org
mtllib Crate_LowPoly.mtl
o Cube.001
v -0.993651 -1.000000 1.000000
v -0.993651 1.000000 1.000000
v -1.000000 -1.000000 -1.000000
v -1.000000 1.000000 -1.000000
v 0.993612 -1.000000 1.000000
v 0.995927 1.000000 1.000000
v 1.000000 -1.000000 -1.000000
v 1.002315 1.000000 -1.000000
v -1.000000 -0.815002 0.831254
v -1.000000 0.815002 0.831254
v -1.000000 0.815002 -0.815002
v -1.000000 -0.815002 -0.815002
v -0.833474 -0.815002 -1.000000
v -0.833474 0.815002 -1.000000
v 0.851658 0.815002 -0.994853
v 0.851658 -0.815002 -0.994853
v 1.000000 -0.815002 -0.815002
v 1.000000 0.815002 -0.815002
v 0.996261 0.815002 0.830105
v 0.996261 -0.815002 0.830105
v 0.849303 -0.815002 1.000000
v 0.849303 0.815002 1.000000
v -0.843300 0.815002 1.000000
v -0.843300 -0.815002 1.000000
v -0.815002 -1.000000 -0.815002
v 0.815002 -1.000000 -0.815002
v 0.815002 -1.000000 0.815002
v -0.815002 -1.000000 0.815002
v 0.815002 1.000000 -0.815002
v -0.815002 1.000000 -0.809182
v -0.815002 1.000000 0.815002
v 0.815002 1.000000 0.815002
v 0.815002 -0.897992 -0.815002
v -0.815002 -0.897992 -0.815002
v -0.815002 -0.897992 0.815002
v 0.815002 -0.897992 0.815002
v -0.815002 0.906211 -0.789008
v 0.815002 0.916384 -0.815002
v 0.815002 0.916384 0.815002
v -0.815002 0.906211 0.815002
v -0.810770 0.815002 -0.896690
v -0.810770 -0.815002 -0.896690
v 0.803746 -0.815002 -0.896690
v 0.803746 0.815002 -0.896690
v 0.802271 0.815002 0.892934
v 0.802271 -0.815002 0.892934
v -0.808600 -0.815002 0.892934
v -0.808600 0.815002 0.892934
v -0.869647 -0.815002 0.815002
v -0.869647 0.815002 0.815002
v -0.869647 -0.815002 -0.815002
v -0.869647 0.815002 -0.815002
v 0.875566 0.815002 -0.815002
v 0.875566 -0.815002 -0.815002
v 0.875566 -0.815002 0.809901
v 0.875566 0.815002 0.809901
v -0.995980 -1.000000 0.266360
v -0.995980 1.000000 0.266360
v 0.995955 -1.000000 0.266360
v 0.998270 1.000000 0.266360
v -1.000000 -0.815002 0.227374
v -1.000000 0.815002 0.227374
v 0.997633 -0.815002 0.226647
v 0.997633 0.815002 0.226647
v -0.815002 -1.000000 0.217084
v 0.815002 -1.000000 0.217084
v 0.815002 1.000000 0.217084
v -0.815002 1.000000 0.217084
v -0.815002 -0.897992 0.217084
v 0.815002 -0.897992 0.217084
v 0.785541 0.949085 0.217084
v -0.815002 0.906211 0.217084
v -0.869647 -0.815002 0.217084
v -0.869647 0.815002 0.217084
v 0.875566 -0.815002 0.213854
v 0.875566 0.815002 0.213854
v -0.997650 1.000000 -0.259815
v 0.997636 -1.000000 -0.259815
v -1.000000 0.815002 -0.205735
v 0.998616 -0.815002 -0.206160
v 0.815002 -1.000000 -0.211750
v -0.815002 1.000000 -0.211750
v 0.815002 -0.897992 -0.211750
v -0.815002 0.906211 -0.211750
v -0.869647 0.815002 -0.211750
v 0.875566 -0.815002 -0.213638
v -0.997650 -1.000000 -0.259815
v 0.999951 1.000000 -0.259815
v -1.000000 -0.815002 -0.205735
v 0.998616 0.815002 -0.206160
v -0.815002 -1.000000 -0.211750
v 0.815002 1.000000 -0.211750
v -0.815002 -0.897992 -0.211750
v 0.785541 0.949085 -0.211750
v -0.869647 -0.815002 -0.211750
v 0.875566 0.815002 -0.213638
v 0.845560 -1.000000 -1.000000
v 0.847696 1.000000 -1.000000
v 0.840156 -1.000000 1.000000
v 0.842292 1.000000 1.000000
v 0.721532 -0.815002 -0.995251
v 0.721532 0.815002 -0.995251
v 0.718601 -0.815002 1.000000
v 0.718601 0.815002 1.000000
v 0.689133 -1.000000 -0.815002
v 0.689133 -1.000000 0.815002
v 0.689133 1.000000 -0.809182
v 0.689133 1.000000 0.815002
v 0.689133 -0.897992 -0.815002
v 0.689133 -0.897992 0.815002
v 0.689133 0.904696 -0.789008
v 0.689133 0.904696 0.815002
v 0.679073 -0.815002 -0.896690
v 0.679073 0.815002 -0.896690
v 0.677880 -0.815002 0.892934
v 0.677880 0.815002 0.892934
v 0.689133 0.904696 0.217084
v 0.689133 -0.897992 0.217084
v 0.689133 -0.897992 -0.211750
v 0.689133 0.904696 -0.211750
vn -0.7147 0.6995 0.0012
vn -0.9249 0.2611 -0.2762
vn -0.6084 0.5842 -0.5372
vn -0.7071 0.7071 -0.0000
vn 0.0010 -0.7132 -0.7009
vn -0.2608 -0.2065 -0.9430
vn -0.4218 -0.6051 -0.6753
vn -0.0000 -0.7071 -0.7071
vn -0.9052 -0.2984 0.3025
vn -0.9052 0.2984 0.3025
vn -0.5774 0.5774 0.5774
vn -0.5774 -0.5774 0.5774
vn -0.0000 0.7071 0.7071
vn -0.2544 0.2046 0.9452
vn -0.4364 0.6023 0.6684
vn -0.0000 0.7071 -0.7071
vn -0.2793 0.9192 -0.2775
vn -0.6128 0.5963 -0.5185
vn -0.0885 0.7154 -0.6931
vn -0.7071 -0.7071 -0.0000
vn -0.3015 -0.9045 -0.3015
vn -0.5774 -0.5774 -0.5774
vn -0.5706 -0.5800 0.5813
vn -0.5706 0.5800 0.5813
vn -0.9249 -0.2611 -0.2762
vn -0.7030 0.7112 0.0012
vn -0.5782 0.5757 -0.5781
vn -0.7118 -0.7024 0.0012
vn -0.5782 -0.5757 -0.5781
vn -0.6990 -0.7151 0.0012
vn 0.2818 -0.2531 -0.9255
vn 0.2818 0.2531 -0.9255
vn 0.0010 0.6989 -0.7152
vn 0.5772 0.5725 -0.5823
vn 0.5756 -0.5749 -0.5815
vn -0.2609 0.2065 -0.9430
vn 0.0010 -0.6989 -0.7152
vn 0.0010 0.7132 -0.7009
vn 0.9025 -0.3043 0.3049
vn 0.9042 0.2987 0.3055
vn 0.7084 0.7058 0.0020
vn 0.5763 0.5766 0.5791
vn 0.9227 -0.2625 -0.2824
vn 0.7057 -0.7085 0.0020
vn 0.5747 -0.5791 0.5783
vn 0.9241 0.2569 -0.2829
vn 0.7051 -0.7091 0.0020
vn 0.7093 0.7049 0.0020
vn -0.2544 -0.2046 0.9452
vn 0.2692 -0.2265 0.9361
vn -0.0000 -0.7071 0.7071
vn 0.2692 0.2265 0.9361
vn -0.3015 -0.9045 0.3015
vn 0.7040 -0.7102 0.0020
vn 0.3015 -0.9045 -0.3015
vn -0.7030 -0.7112 0.0012
vn 0.3015 -0.9045 0.3015
vn 0.7071 -0.7071 -0.0000
vn 0.2498 0.9262 0.2823
vn 0.0398 0.7576 0.6516
vn -0.6990 0.7151 0.0012
vn 0.3015 0.9045 -0.3015
vn 0.7071 0.7071 -0.0000
vn 0.7095 0.7047 0.0020
vn -0.2386 0.9339 0.2664
vn -0.5615 0.8275 -0.0090
vn -0.0000 -1.0000 -0.0000
vn -0.1680 0.9858 0.0083
vn 0.7075 0.7068 -0.0000
vn 0.5776 0.5770 -0.5774
vn -0.5623 0.6253 0.5411
vn -0.6956 0.7182 -0.0175
vn 0.5774 -0.5774 -0.5774
vn 0.5774 -0.5774 0.5774
vn 0.5898 0.6276 0.5081
vn -0.0558 0.7921 0.6078
vn -0.4218 0.6051 -0.6753
vn 0.4724 -0.5956 0.6497
vn 0.4724 0.5956 0.6497
vn 0.5061 -0.5896 -0.6295
vn 0.5061 0.5896 -0.6295
vn -0.4364 -0.6023 0.6684
vn 0.6182 -0.5866 -0.5233
vn 0.6182 0.5866 -0.5233
vn 0.5774 0.5774 0.5774
vn -0.6084 -0.5842 -0.5372
vn 0.7048 -0.7094 0.0020
vn -0.7147 -0.6995 0.0012
vn 0.7101 0.7041 0.0020
vn -0.5615 0.8275 0.0091
vn -0.6950 0.7188 0.0174
vn -0.1689 0.9856 -0.0084
vn -0.7118 0.7024 0.0012
vt 0.023502 0.114820
vt 0.022808 0.030510
vt 0.038997 0.044549
vt 0.038214 0.118560
vt 0.252976 0.533464
vt 0.253123 0.551212
vt 0.236933 0.535543
vt 0.237098 0.520088
vt 0.253123 0.260351
vt 0.024701 0.260351
vt 0.036864 0.246312
vt 0.236933 0.246312
vt 0.318270 0.260351
vt 0.300631 0.260351
vt 0.312794 0.246312
vt 0.328244 0.246312
vt 0.785451 0.030510
vt 0.803090 0.030510
vt 0.790927 0.044549
vt 0.775478 0.044549
vt 0.660351 0.551212
vt 0.576561 0.551212
vt 0.588724 0.535543
vt 0.662114 0.535543
vt 0.000295 0.007143
vt 0.275635 0.007143
vt 0.251229 0.030510
vt 0.275635 0.181359
vt 0.275635 0.283717
vt 0.252422 0.175289
vt 0.000295 0.283717
vt 0.000295 0.108596
vt 0.000295 0.298004
vt 0.275635 0.298004
vt 0.251229 0.321370
vt 0.022808 0.321370
vt 0.275635 0.553221
vt 0.275635 0.574578
vt 0.000295 0.574578
vt 0.024701 0.551212
vt 0.000295 0.553221
vt 0.024555 0.533464
vt 0.551566 0.574578
vt 0.276225 0.574578
vt 0.300631 0.551212
vt 0.529053 0.551212
vt 0.276225 0.399457
vt 0.276225 0.298004
vt 0.298738 0.321370
vt 0.299433 0.405681
vt 0.551566 0.298004
vt 0.527160 0.321370
vt 0.551566 0.472220
vt 0.528352 0.466149
vt 0.276225 0.283717
vt 0.276225 0.007143
vt 0.298738 0.030510
vt 0.297487 0.007143
vt 0.551566 0.007143
vt 0.527160 0.030510
vt 0.316377 0.030510
vt 0.551566 0.283717
vt 0.529053 0.260351
vt 0.297487 0.283717
vt 0.827496 0.553221
vt 0.827496 0.574578
vt 0.804983 0.551212
vt 0.804837 0.533464
vt 0.653156 0.574578
vt 0.552155 0.574578
vt 0.552155 0.553221
vt 0.552155 0.298004
vt 0.574668 0.321370
vt 0.576415 0.533464
vt 0.725595 0.298004
vt 0.827496 0.298004
vt 0.803090 0.321370
vt 0.718553 0.321370
vt 0.806234 0.283717
vt 0.552155 0.283717
vt 0.576562 0.260351
vt 0.787344 0.260351
vt 0.552155 0.108596
vt 0.552155 0.007143
vt 0.574668 0.030510
vt 0.575363 0.114820
vt 0.806234 0.007143
vt 0.827496 0.007143
vt 0.827496 0.181359
vt 0.827496 0.283717
vt 0.804983 0.260351
vt 0.804282 0.175289
vt 0.192740 0.923205
vt 0.208844 0.923205
vt 0.208844 0.999705
vt 0.192740 0.999705
vt 0.076795 0.598121
vt 0.076795 0.790566
vt 0.000295 0.790566
vt 0.000295 0.598121
vt 0.788794 0.535543
vt 0.788959 0.520088
vt 0.788794 0.246312
vt 0.789583 0.171641
vt 0.590857 0.335410
vt 0.588889 0.520088
vt 0.790927 0.335410
vt 0.716883 0.335410
vt 0.590857 0.044549
vt 0.590075 0.118560
vt 0.588725 0.246312
vt 0.773345 0.246312
vt 0.417984 0.807260
vt 0.209434 0.807260
vt 0.209434 0.791156
vt 0.417984 0.791156
vt 0.434677 0.790566
vt 0.434677 0.582016
vt 0.627123 0.582016
vt 0.627123 0.790566
vt 0.239066 0.335410
vt 0.038997 0.335410
vt 0.514997 0.044549
vt 0.330376 0.044549
vt 0.314927 0.044549
vt 0.036864 0.535543
vt 0.037029 0.520088
vt 0.512864 0.246312
vt 0.836262 0.659199
vt 0.627712 0.659199
vt 0.627712 0.582016
vt 0.836262 0.582016
vt 0.341483 0.790566
vt 0.341483 0.582016
vt 0.417984 0.582016
vt 0.417984 0.790566
vt 0.514997 0.335410
vt 0.314927 0.335410
vt 0.512864 0.535543
vt 0.513653 0.461475
vt 0.237723 0.171641
vt 0.239066 0.044549
vt 0.314145 0.408822
vt 0.312794 0.535543
vt 0.299931 0.466149
vt 0.313584 0.461475
vt 0.251924 0.114820
vt 0.238284 0.118560
vt 0.527854 0.405681
vt 0.514214 0.408822
vt 0.286617 0.790566
vt 0.286617 0.582016
vt 0.836262 0.790566
vt 0.627712 0.790566
vt 0.627712 0.714066
vt 0.836262 0.714066
vt 0.575861 0.175289
vt 0.589514 0.171641
vt 0.658458 0.321370
vt 0.664247 0.335410
vt 0.803784 0.114820
vt 0.790145 0.118560
vt 0.131662 0.598121
vt 0.131662 0.790566
vt 0.192740 0.868338
vt 0.208844 0.868338
vt 0.827496 0.108596
vt 0.552155 0.181360
vt 0.653156 0.298004
vt 0.725595 0.574578
vt 0.720446 0.551212
vt 0.551566 0.399457
vt 0.276225 0.472220
vt 0.000295 0.181359
vt 0.024000 0.175289
vt 0.275635 0.108596
vt 0.714750 0.535543
vt 0.037653 0.171641
vt 0.192740 0.791156
vt 0.208844 0.791156
vt 0.208844 0.598121
vt 0.208844 0.790566
vt 0.209434 0.790566
vt 0.209434 0.582016
vt 0.208844 0.582016
vt 0.131662 0.582016
vt 0.000295 0.791156
vt 0.000295 0.868338
vt 0.000295 0.923205
vt 0.076795 0.582016
vt 0.418573 0.790566
vt 0.418573 0.582016
vt 0.417984 0.999705
vt 0.209434 0.999705
vt 0.000295 0.582016
vt 0.000295 0.999705
s 1
f 61/1/1 9/2/2 49/3/3 73/4/4
f 102/5/5 15/6/6 44/7/7 114/8/8
f 11/9/9 12/10/10 51/11/11 52/12/12
f 103/13/13 21/14/14 46/15/15 115/16/13
f 108/17/16 32/18/17 39/19/18 112/20/19
f 66/21/20 27/22/21 36/23/22 70/24/20
f 1/25/23 2/26/24 10/27/25 9/2/2
f 77/28/26 4/29/27 11/9/9 79/30/28
f 4/29/27 3/31/29 12/10/10 11/9/9
f 57/32/30 1/25/23 9/2/2 61/1/1
f 3/33/29 4/34/27 14/35/31 13/36/32
f 98/37/33 8/38/34 15/6/6 102/5/5
f 8/38/34 7/39/35 16/40/36 15/6/6
f 97/41/37 3/33/29 13/36/32 101/42/38
f 7/43/35 8/44/34 18/45/39 17/46/40
f 60/47/41 6/48/42 19/49/43 64/50/44
f 6/48/42 5/51/45 20/52/46 19/49/43
f 78/53/47 7/43/35 17/46/40 80/54/48
f 5/55/45 6/56/42 22/57/49 21/14/14
f 100/58/13 2/59/24 23/60/50 104/61/51
f 2/59/24 1/62/23 24/63/52 23/60/50
f 99/64/51 5/55/45 21/14/14 103/13/13
f 97/65/37 7/66/35 26/67/53 105/68/51
f 59/69/54 5/70/45 27/22/21 66/21/20
f 99/71/51 1/72/23 28/73/55 106/74/8
f 87/75/56 3/76/29 25/77/57 91/78/58
f 98/79/33 4/80/27 30/81/59 107/82/60
f 58/83/61 2/84/24 31/85/62 68/86/63
f 100/87/13 6/88/42 32/18/17 108/17/16
f 88/89/64 8/90/34 29/91/65 92/92/66
f 118/93/67 70/94/20 36/95/22 110/96/8
f 117/97/68 72/98/69 40/99/70 112/100/19
f 105/68/51 26/67/53 33/101/12 109/102/51
f 92/92/66 29/91/65 38/103/71 94/104/72
f 106/74/8 28/73/55 35/105/73 110/106/8
f 91/78/58 25/77/57 34/107/74 93/108/58
f 68/86/63 31/85/62 40/109/70 72/110/69
f 107/82/60 30/81/59 37/111/75 111/112/76
f 113/113/16 114/114/8 44/115/7 43/116/77
f 115/117/13 116/118/51 48/119/78 47/120/79
f 13/36/32 14/35/31 41/121/80 42/122/81
f 104/61/51 23/60/50 48/123/78 116/124/51
f 21/14/14 22/57/49 45/125/82 46/15/15
f 15/6/6 16/40/36 43/126/77 44/7/7
f 101/42/38 13/36/32 42/122/81 113/127/16
f 23/60/50 24/63/52 47/128/79 48/123/78
f 95/129/4 85/130/20 52/131/12 51/132/11
f 75/133/63 76/134/58 56/135/83 55/136/84
f 19/49/43 20/52/46 55/137/84 56/138/83
f 80/54/48 17/46/40 54/139/85 86/140/63
f 79/30/28 11/9/9 52/12/12 85/141/20
f 9/2/2 10/27/25 50/142/86 49/3/3
f 64/50/44 19/49/43 56/138/83 76/143/58
f 17/46/40 18/45/39 53/144/74 54/139/85
f 90/145/87 64/50/44 76/143/58 96/146/58
f 10/27/25 62/147/88 74/148/20 50/142/86
f 20/52/46 63/149/89 75/150/63 55/137/84
f 86/151/63 96/152/58 76/134/58 75/133/63
f 49/153/3 50/154/86 74/155/20 73/156/4
f 82/157/63 68/86/63 72/110/69 84/158/69
f 28/73/55 65/159/58 69/160/58 35/105/73
f 32/18/17 67/161/90 71/162/91 39/19/18
f 120/163/92 84/164/69 72/98/69 117/97/68
f 119/165/67 83/166/20 70/94/20 118/93/67
f 6/88/42 60/167/41 67/161/90 32/18/17
f 77/168/26 58/83/61 68/86/63 82/157/63
f 1/72/23 57/169/30 65/159/58 28/73/55
f 78/170/47 59/69/54 66/21/20 81/171/20
f 5/51/45 59/172/54 63/149/89 20/52/46
f 88/173/64 60/47/41 64/50/44 90/145/87
f 87/174/56 57/32/30 61/1/1 89/175/93
f 2/26/24 58/176/61 62/147/88 10/27/25
f 81/171/20 66/21/20 70/24/20 83/177/20
f 89/175/93 61/1/1 73/4/4 95/178/4
f 12/10/10 89/175/93 95/178/4 51/11/11
f 26/67/53 81/171/20 83/177/20 33/101/12
f 3/31/29 87/174/56 89/175/93 12/10/10
f 8/44/34 88/173/64 90/145/87 18/45/39
f 7/66/35 78/170/47 81/171/20 26/67/53
f 4/80/27 77/168/26 82/157/63 30/81/59
f 109/179/51 33/180/12 83/166/20 119/165/67
f 111/181/76 37/182/75 84/164/69 120/163/92
f 30/81/59 82/157/63 84/158/69 37/111/75
f 54/183/85 53/184/74 96/152/58 86/151/63
f 18/45/39 90/145/87 96/146/58 53/144/74
f 62/147/88 79/30/28 85/141/20 74/148/20
f 63/149/89 80/54/48 86/140/63 75/150/63
f 73/156/4 74/155/20 85/130/20 95/129/4
f 65/159/58 91/78/58 93/108/58 69/160/58
f 67/161/90 92/92/66 94/104/72 71/162/91
f 60/167/41 88/89/64 92/92/66 67/161/90
f 57/169/30 87/75/56 91/78/58 65/159/58
f 59/172/54 78/53/47 80/54/48 63/149/89
f 58/176/61 77/28/26 79/30/28 62/147/88
f 38/185/71 111/181/76 120/163/92 94/186/72
f 34/187/74 109/179/51 119/165/67 93/188/58
f 93/188/58 119/165/67 118/93/67 69/189/58
f 94/186/72 120/163/92 117/97/68 71/190/91
f 16/40/36 101/42/38 113/127/16 43/126/77
f 22/57/49 104/61/51 116/124/51 45/125/82
f 46/191/15 45/192/82 116/118/51 115/117/13
f 42/193/81 41/194/80 114/114/8 113/113/16
f 29/91/65 107/82/60 111/112/76 38/103/71
f 27/22/21 106/74/8 110/106/8 36/23/22
f 25/77/57 105/68/51 109/102/51 34/107/74
f 71/190/91 117/97/68 112/100/19 39/195/18
f 69/189/58 118/93/67 110/96/8 35/196/73
f 2/84/24 100/87/13 108/17/16 31/85/62
f 8/90/34 98/79/33 107/82/60 29/91/65
f 5/70/45 99/71/51 106/74/8 27/22/21
f 3/76/29 97/65/37 105/68/51 25/77/57
f 1/62/23 99/64/51 103/13/13 24/63/52
f 6/56/42 100/58/13 104/61/51 22/57/49
f 7/39/35 97/41/37 101/42/38 16/40/36
f 4/34/27 98/37/33 102/5/5 14/35/31
f 31/85/62 108/17/16 112/20/19 40/109/70
f 24/63/52 103/13/13 115/16/13 47/128/79
f 14/35/31 102/5/5 114/8/8 41/121/80
